<svg width="246" height="246" viewBox="0 0 246 246" fill="none" xmlns="http://www.w3.org/2000/svg">
<rect width="246" height="246" fill="#F9F9F9"/>
<circle cx="123" cy="123" r="123" fill="#F9F9F9"/>
<path d="M82.9375 74.7188C89.8238 74.7188 95.4062 69.1363 95.4062 62.25C95.4062 55.3637 89.8238 49.7812 82.9375 49.7812C76.0512 49.7812 70.4688 55.3637 70.4688 62.25C70.4688 69.1363 76.0512 74.7188 82.9375 74.7188Z" stroke="black" stroke-width="6" stroke-miterlimit="10" stroke-linecap="round" stroke-linejoin="round"/>
<path d="M82.9375 74.7188V141.219" stroke="black" stroke-width="6" stroke-miterlimit="10" stroke-linecap="round" stroke-linejoin="round"/>
<path d="M124.5 124.594C131.386 124.594 136.969 119.011 136.969 112.125C136.969 105.239 131.386 99.6562 124.5 99.6562C117.614 99.6562 112.031 105.239 112.031 112.125C112.031 119.011 117.614 124.594 124.5 124.594Z" stroke="black" stroke-width="6" stroke-miterlimit="10" stroke-linecap="round" stroke-linejoin="round"/>
<path d="M124.5 49.7812V99.6562" stroke="black" stroke-width="6" stroke-miterlimit="10" stroke-linecap="round" stroke-linejoin="round"/>
<path d="M124.5 124.594V141.219" stroke="black" stroke-width="6" stroke-miterlimit="10" stroke-linecap="round" stroke-linejoin="round"/>
<path d="M166.062 99.6562C172.949 99.6562 178.531 94.0738 178.531 87.1875C178.531 80.3012 172.949 74.7188 166.062 74.7188C159.176 74.7188 153.594 80.3012 153.594 87.1875C153.594 94.0738 159.176 99.6562 166.062 99.6562Z" stroke="black" stroke-width="6" stroke-miterlimit="10" stroke-linecap="round" stroke-linejoin="round"/>
<path d="M166.062 99.6562V141.219" stroke="black" stroke-width="6" stroke-miterlimit="10" stroke-linecap="round" stroke-linejoin="round"/>
<path d="M166.062 49.7812V74.7188" stroke="black" stroke-width="6" stroke-miterlimit="10" stroke-linecap="round" stroke-linejoin="round"/>
<path d="M47.5171 193.545H52.0682L56.875 205.273H57.0795L61.8864 193.545H66.4375V211H62.858V199.639H62.7131L58.196 210.915H55.7585L51.2415 199.597H51.0966V211H47.5171V193.545ZM72.4865 211H68.532L74.5575 193.545H79.3132L85.3303 211H81.3757L77.0036 197.534H76.8672L72.4865 211ZM72.2393 204.139H81.5803V207.02H72.2393V204.139ZM98.2124 193.545H101.903V204.881C101.903 206.153 101.599 207.267 100.991 208.222C100.388 209.176 99.5447 209.92 98.4595 210.455C97.3743 210.983 96.1101 211.247 94.6669 211.247C93.218 211.247 91.951 210.983 90.8658 210.455C89.7805 209.92 88.9368 209.176 88.3345 208.222C87.7322 207.267 87.4311 206.153 87.4311 204.881V193.545H91.1214V204.565C91.1214 205.23 91.2663 205.821 91.5561 206.338C91.8516 206.855 92.2663 207.261 92.8004 207.557C93.3345 207.852 93.9567 208 94.6669 208C95.3828 208 96.005 207.852 96.5334 207.557C97.0675 207.261 97.4794 206.855 97.7692 206.338C98.0646 205.821 98.2124 205.23 98.2124 204.565V193.545ZM108.629 193.545V211H104.939V193.545H108.629ZM128.794 199.188C128.675 198.773 128.507 198.406 128.291 198.088C128.075 197.764 127.811 197.491 127.499 197.27C127.192 197.043 126.84 196.869 126.442 196.75C126.05 196.631 125.615 196.571 125.138 196.571C124.246 196.571 123.462 196.793 122.785 197.236C122.115 197.679 121.592 198.324 121.217 199.17C120.842 200.011 120.655 201.04 120.655 202.256C120.655 203.472 120.84 204.506 121.209 205.358C121.578 206.21 122.101 206.861 122.777 207.31C123.453 207.753 124.251 207.974 125.172 207.974C126.007 207.974 126.72 207.827 127.311 207.531C127.908 207.23 128.362 206.807 128.675 206.261C128.993 205.716 129.152 205.071 129.152 204.327L129.902 204.438H125.402V201.659H132.706V203.858C132.706 205.392 132.382 206.71 131.734 207.812C131.087 208.909 130.195 209.756 129.058 210.352C127.922 210.943 126.621 211.239 125.155 211.239C123.519 211.239 122.081 210.878 120.842 210.156C119.604 209.429 118.638 208.398 117.945 207.062C117.257 205.722 116.913 204.131 116.913 202.29C116.913 200.875 117.118 199.614 117.527 198.506C117.942 197.392 118.521 196.449 119.266 195.676C120.01 194.903 120.876 194.315 121.865 193.912C122.854 193.509 123.925 193.307 125.078 193.307C126.067 193.307 126.987 193.452 127.84 193.741C128.692 194.026 129.447 194.429 130.106 194.952C130.771 195.474 131.314 196.097 131.734 196.818C132.155 197.534 132.425 198.324 132.544 199.188H128.794ZM139.143 211.247C138.307 211.247 137.563 211.102 136.91 210.812C136.256 210.517 135.739 210.082 135.359 209.509C134.984 208.929 134.796 208.207 134.796 207.344C134.796 206.616 134.93 206.006 135.197 205.511C135.464 205.017 135.827 204.619 136.288 204.318C136.748 204.017 137.271 203.79 137.856 203.636C138.447 203.483 139.066 203.375 139.714 203.312C140.475 203.233 141.089 203.159 141.555 203.091C142.021 203.017 142.359 202.909 142.569 202.767C142.779 202.625 142.884 202.415 142.884 202.136V202.085C142.884 201.545 142.714 201.128 142.373 200.832C142.038 200.537 141.56 200.389 140.941 200.389C140.288 200.389 139.768 200.534 139.381 200.824C138.995 201.108 138.739 201.466 138.614 201.898L135.256 201.625C135.427 200.83 135.762 200.142 136.262 199.562C136.762 198.977 137.407 198.528 138.197 198.216C138.992 197.898 139.913 197.739 140.958 197.739C141.685 197.739 142.381 197.824 143.046 197.994C143.717 198.165 144.31 198.429 144.827 198.787C145.35 199.145 145.762 199.605 146.063 200.168C146.364 200.724 146.515 201.392 146.515 202.17V211H143.072V209.185H142.969C142.759 209.594 142.478 209.955 142.126 210.267C141.773 210.574 141.35 210.815 140.856 210.991C140.361 211.162 139.79 211.247 139.143 211.247ZM140.183 208.741C140.717 208.741 141.188 208.636 141.597 208.426C142.006 208.21 142.327 207.92 142.56 207.557C142.793 207.193 142.91 206.781 142.91 206.321V204.932C142.796 205.006 142.64 205.074 142.441 205.136C142.248 205.193 142.029 205.247 141.785 205.298C141.54 205.344 141.296 205.386 141.052 205.426C140.808 205.46 140.586 205.491 140.387 205.52C139.961 205.582 139.589 205.682 139.271 205.818C138.952 205.955 138.705 206.139 138.529 206.372C138.353 206.599 138.265 206.884 138.265 207.224C138.265 207.719 138.444 208.097 138.802 208.358C139.166 208.614 139.626 208.741 140.183 208.741ZM152.962 193.545V211H149.332V193.545H152.962ZM159.501 193.545V211H155.871V193.545H159.501ZM168.376 211.256C167.029 211.256 165.87 210.983 164.898 210.438C163.933 209.886 163.188 209.108 162.665 208.102C162.143 207.091 161.881 205.895 161.881 204.514C161.881 203.168 162.143 201.986 162.665 200.969C163.188 199.952 163.924 199.159 164.873 198.591C165.827 198.023 166.947 197.739 168.231 197.739C169.094 197.739 169.898 197.878 170.643 198.156C171.393 198.429 172.046 198.841 172.603 199.392C173.165 199.943 173.603 200.636 173.915 201.472C174.228 202.301 174.384 203.273 174.384 204.386V205.384H163.33V203.134H170.967C170.967 202.611 170.853 202.148 170.626 201.744C170.398 201.341 170.083 201.026 169.68 200.798C169.282 200.565 168.819 200.449 168.29 200.449C167.739 200.449 167.251 200.577 166.825 200.832C166.404 201.082 166.075 201.42 165.836 201.847C165.597 202.267 165.475 202.736 165.469 203.253V205.392C165.469 206.04 165.589 206.599 165.827 207.071C166.072 207.543 166.415 207.906 166.859 208.162C167.302 208.418 167.827 208.545 168.435 208.545C168.839 208.545 169.208 208.489 169.543 208.375C169.879 208.261 170.165 208.091 170.404 207.864C170.643 207.636 170.825 207.358 170.95 207.028L174.308 207.25C174.137 208.057 173.788 208.761 173.259 209.364C172.737 209.96 172.06 210.426 171.231 210.761C170.407 211.091 169.455 211.256 168.376 211.256ZM176.754 211V197.909H180.273V200.193H180.41C180.648 199.381 181.049 198.767 181.612 198.352C182.174 197.932 182.822 197.722 183.555 197.722C183.737 197.722 183.933 197.733 184.143 197.756C184.353 197.778 184.538 197.81 184.697 197.849V201.071C184.526 201.02 184.29 200.974 183.989 200.935C183.688 200.895 183.413 200.875 183.163 200.875C182.629 200.875 182.151 200.991 181.731 201.224C181.316 201.452 180.987 201.77 180.742 202.179C180.504 202.588 180.384 203.06 180.384 203.594V211H176.754ZM189.214 215.909C188.754 215.909 188.322 215.872 187.918 215.798C187.521 215.73 187.191 215.642 186.93 215.534L187.748 212.824C188.174 212.955 188.558 213.026 188.898 213.037C189.245 213.048 189.543 212.969 189.793 212.798C190.049 212.628 190.256 212.338 190.415 211.929L190.629 211.375L185.933 197.909H189.751L192.461 207.523H192.597L195.333 197.909H199.177L194.089 212.415C193.844 213.119 193.512 213.733 193.092 214.256C192.677 214.784 192.151 215.19 191.515 215.474C190.879 215.764 190.112 215.909 189.214 215.909Z" fill="black"/>
</svg>
